    <svg width="24" height="24" viewBox="0 0 34 34" version="1.1" xmlns="http://www.w3.org/2000/svg" xmlns:xlink="http://www.w3.org/1999/xlink">
    <g id="logo_newW_08_28_2020_exp" stroke="none" stroke-width="1" fill="none" fill-rule="evenodd">
        <g id="Group" mask="url(#mask-2)">
            <g transform="translate(-32.417736, 2.869803)" id="LogoBack/new1">
                <g transform="translate(56.000000, 20.500000) rotate(22.500000) translate(-56.000000, -20.500000) ">
                    <g id="Group-2" transform="translate(-10.000000, -9.000000)">
                        <path d="M125,3.21787709 C122.595238,1.0726257 120.190476,-7.10542736e-15 117.785714,-7.10542736e-15 C114.178571,-7.10542736e-15 114.178571,2.41340782 110.571429,2.41340782 C106.964286,2.41340782 106.964286,-3.55271368e-15 103.357143,-3.55271368e-15 C99.75,-3.55271368e-15 99.75,2.41340782 96.1428571,2.41340782 C92.5357143,2.41340782 92.5357143,-3.55271368e-15 88.9285714,-3.55271368e-15 C85.3214286,-3.55271368e-15 85.3214286,2.41340782 81.7142857,2.41340782 C78.1071429,2.41340782 78.1071429,0 74.5,0 C70.8928571,0 70.8928571,2.41340782 67.2857143,2.41340782 C63.6785714,2.41340782 63.6785714,0 60.0714286,0 C56.4642857,0 56.4642857,2.41340782 52.8571429,2.41340782 C49.25,2.41340782 49.25,3.55271368e-15 45.6428571,3.55271368e-15 C42.0357143,3.55271368e-15 42.0357143,2.41340782 38.4285714,2.41340782 C34.8214286,2.41340782 34.8214286,3.55271368e-15 31.2142857,3.55271368e-15 C28.8095238,3.55271368e-15 26.4047619,1.0726257 24,3.21787709 L24,18 L125,18 L125,3.21787709 Z" id="Combined-Shape-Copy-3" fill="#035262"></path>
                        <path d="M117,17.2178771 C114.595238,15.0726257 112.190476,14 109.785714,14 C106.178571,14 106.178571,16.4134078 102.571429,16.4134078 C98.9642857,16.4134078 98.9642857,14 95.3571429,14 C91.75,14 91.75,16.4134078 88.1428571,16.4134078 C84.5357143,16.4134078 84.5357143,14 80.9285714,14 C77.3214286,14 77.3214286,16.4134078 73.7142857,16.4134078 C70.1071429,16.4134078 70.1071429,14 66.5,14 C62.8928571,14 62.8928571,16.4134078 59.2857143,16.4134078 C55.6785714,16.4134078 55.6785714,14 52.0714286,14 C48.4642857,14 48.4642857,16.4134078 44.8571429,16.4134078 C41.25,16.4134078 41.25,14 37.6428571,14 C34.0357143,14 34.0357143,16.4134078 30.4285714,16.4134078 C26.8214286,16.4134078 26.8214286,14 23.2142857,14 C20.8095238,14 18.4047619,15.0726257 16,17.2178771 L16,32 L117,32 L117,17.2178771 Z" id="Combined-Shape-Copy-2" fill="#057C80"></path>
                        <path d="M109,29.2178771 C106.595238,27.0726257 104.190476,26 101.785714,26 C98.1785714,26 98.1785714,28.4134078 94.5714286,28.4134078 C90.9642857,28.4134078 90.9642857,26 87.3571429,26 C83.75,26 83.75,28.4134078 80.1428571,28.4134078 C76.5357143,28.4134078 76.5357143,26 72.9285714,26 C69.3214286,26 69.3214286,28.4134078 65.7142857,28.4134078 C62.1071429,28.4134078 62.1071429,26 58.5,26 C54.8928571,26 54.8928571,28.4134078 51.2857143,28.4134078 C47.6785714,28.4134078 47.6785714,26 44.0714286,26 C40.4642857,26 40.4642857,28.4134078 36.8571429,28.4134078 C33.25,28.4134078 33.25,26 29.6428571,26 C26.0357143,26 26.0357143,28.4134078 22.4285714,28.4134078 C18.8214286,28.4134078 18.8214286,26 15.2142857,26 C12.8095238,26 10.4047619,27.0726257 8,29.2178771 L8,44 L109,44 L109,29.2178771 Z" id="Combined-Shape-Copy" fill="#05948C"></path>
                        <path d="M101,41.2178771 C98.5952381,39.0726257 96.1904762,38 93.7857143,38 C90.1785714,38 90.1785714,40.4134078 86.5714286,40.4134078 C82.9642857,40.4134078 82.9642857,38 79.3571429,38 C75.75,38 75.75,40.4134078 72.1428571,40.4134078 C68.5357143,40.4134078 68.5357143,38 64.9285714,38 C61.3214286,38 61.3214286,40.4134078 57.7142857,40.4134078 C54.1071429,40.4134078 54.1071429,38 50.5,38 C46.8928571,38 46.8928571,40.4134078 43.2857143,40.4134078 C39.6785714,40.4134078 39.6785714,38 36.0714286,38 C32.4642857,38 32.4642857,40.4134078 28.8571429,40.4134078 C25.25,40.4134078 25.25,38 21.6428571,38 C18.0357143,38 18.0357143,40.4134078 14.4285714,40.4134078 C10.8214286,40.4134078 10.8214286,38 7.21428571,38 C4.80952381,38 2.4047619,39.0726257 0,41.2178771 L0,56 L101,56 L101,41.2178771 Z" id="Combined-Shape" fill="#27AA8F"></path>
                    </g>
                </g>
            </g>
        </g>
        <path d="M7.4645,21.5 L10.8575,16.495 L11.4685,15.273 L11.5335,15.273 L11.4295,16.456 L11.4295,21.5 L13.2105,21.5 L13.2105,12.4 L11.8845,12.4 L8.4915,17.314 L7.8545,18.575 L7.7765,18.575 L7.9065,17.353 L7.9065,12.4 L6.1255,12.4 L6.1255,21.5 L7.4645,21.5 Z M18.5665,21.682 C19.0171667,21.682 19.457,21.6386667 19.886,21.552 C20.315,21.4653333 20.6681667,21.3223333 20.9455,21.123 L20.5815,19.667 C20.3821667,19.7883333 20.1481667,19.888 19.8795,19.966 C19.6108333,20.044 19.2815,20.083 18.8915,20.083 C18.4755,20.083 18.1093333,20.0071667 17.793,19.8555 C17.4766667,19.7038333 17.2123333,19.4915 17,19.2185 C16.7876667,18.9455 16.6295,18.6161667 16.5255,18.2305 C16.4215,17.8448333 16.3695,17.418 16.3695,16.95 C16.3695,15.8753333 16.5883333,15.0823333 17.026,14.571 C17.4636667,14.0596667 18.0421667,13.804 18.7615,13.804 C19.1515,13.804 19.483,13.8256667 19.756,13.869 C20.029,13.9123333 20.2651667,13.9816667 20.4645,14.077 L20.8155,12.569 C20.5815,12.4736667 20.2846667,12.3913333 19.925,12.322 C19.5653333,12.2526667 19.1255,12.218 18.6055,12.218 C18.1201667,12.218 17.6348333,12.2981667 17.1495,12.4585 C16.6641667,12.6188333 16.2243333,12.8831667 15.83,13.2515 C15.4356667,13.6198333 15.115,14.1051667 14.868,14.7075 C14.621,15.3098333 14.4975,16.0573333 14.4975,16.95 C14.4975,17.808 14.608,18.5381667 14.829,19.1405 C15.05,19.7428333 15.3468333,20.2325 15.7195,20.6095 C16.0921667,20.9865 16.5233333,21.2595 17.013,21.4285 C17.5026667,21.5975 18.0205,21.682 18.5665,21.682 Z M23.7275,21.591 C24.0655,21.591 24.3601667,21.5325 24.6115,21.4155 C24.8628333,21.2985 25.0903333,21.1208333 25.294,20.8825 C25.4976667,20.6441667 25.6883333,20.343 25.866,19.979 C26.0436667,19.615 26.2278333,19.186 26.4185,18.692 L28.8365,12.4 L27.0035,12.4 L25.6385,16.378 L25.4305,17.6 L25.3525,17.6 L25.0925,16.417 L23.2465,12.4 L21.1535,12.4 L24.5595,19.043 C24.3948333,19.6843333 24.1088333,20.005 23.7015,20.005 C23.5628333,20.005 23.4328333,19.9963333 23.3115,19.979 C23.1901667,19.9616667 23.0558333,19.914 22.9085,19.836 L22.4535,21.279 C22.6615,21.409 22.8543333,21.4935 23.032,21.5325 C23.2096667,21.5715 23.4415,21.591 23.7275,21.591 Z" id="ИСУ" fill="#F2F3F5" fill-rule="nonzero" mask="url(#mask-2)"></path>
    </g>
</svg>